<svg width="48" height="62" viewBox="0 0 48 62" fill="none" xmlns="http://www.w3.org/2000/svg">
<path opacity="0.5" d="M22.5252 44.3333H25.4747C30.0701 44.3333 32.3678 44.3333 33.9346 42.9843C35.5013 41.6352 35.8263 39.3769 36.4762 34.8603L36.4762 34.8603L36.8479 32.2772C37.3538 28.7611 37.6068 27.0031 36.8861 25.4999C36.1655 23.9968 34.6317 23.0831 31.5641 21.2558L29.7176 20.1558C26.9319 18.4964 25.539 17.6667 24 17.6667C22.4609 17.6667 21.068 18.4964 18.2823 20.1558L16.4358 21.2558L16.4358 21.2558C13.3682 23.0831 11.8344 23.9968 11.1138 25.4999C10.3932 27.0031 10.6461 28.7611 11.1521 32.2772L11.5237 34.8603C12.1736 39.3769 12.4986 41.6352 14.0653 42.9843C15.6321 44.3333 17.9298 44.3333 22.5252 44.3333Z" fill="#269544"/>
<path d="M20.5955 35.5294C20.1519 35.2005 19.5256 35.2936 19.1967 35.7373C18.8678 36.181 18.9609 36.8072 19.4046 37.1361C20.7011 38.0972 22.2868 38.6661 24.0001 38.6661C25.7134 38.6661 27.299 38.0972 28.5955 37.1361C29.0392 36.8072 29.1323 36.181 28.8034 35.7373C28.4746 35.2936 27.8483 35.2005 27.4046 35.5294C26.4335 36.2492 25.2613 36.6661 24.0001 36.6661C22.7389 36.6661 21.5667 36.2492 20.5955 35.5294Z" fill="#269544"/>
<path d="M8 62C8 59.7909 9.79086 58 12 58H36C38.2091 58 40 59.7909 40 62V62H8V62Z" fill="#269544"/>
</svg>
