<svg width="160" height="88" viewBox="0 0 160 88" fill="none" xmlns="http://www.w3.org/2000/svg">
<path d="M106.083 86.8867C106.828 87.6011 107.82 88 108.852 88H134.33C137.933 88 139.699 83.6081 137.099 81.1133L53.6984 1.11334C52.9536 0.398904 51.9614 0 50.9294 0H25.4519C21.848 0 20.0822 4.3919 22.683 6.88666L106.083 86.8867Z" fill="url(#paint0_linear_856_18635)"/>
<path fill-rule="evenodd" clip-rule="evenodd" d="M1.9263 30.9434C0.780705 30.0911 0 28.7963 0 27.3685V12.3256C0 8.80195 4.22608 6.99971 6.76896 9.4389L81.4897 81.1129C84.0905 83.6076 82.3246 87.9995 78.7207 87.9995H53.4614C52.4293 87.9995 51.4372 87.6006 50.6924 86.8862L30.7013 67.7099C28.1584 65.2707 23.9323 67.073 23.9323 70.5966V83.9995C23.9323 86.2087 22.1414 87.9995 19.9323 87.9995H4C1.79086 87.9995 0 86.2087 0 83.9995V66.6315C0 65.2037 0.780703 63.9089 1.92629 63.0566C6.82598 59.4113 10 53.5763 10 47C10 40.4237 6.82598 34.5887 1.9263 30.9434Z" fill="#51B46C"/>
<path fill-rule="evenodd" clip-rule="evenodd" d="M160 75.4506C160 78.9742 155.774 80.7765 153.231 78.3373L78.7433 6.88667C76.1425 4.39191 77.9083 3.72138e-06 81.5122 3.27785e-06L106.538 1.97932e-07C107.57 7.09186e-08 108.562 0.398901 109.307 1.11333L129.299 20.2896C131.841 22.7288 136.068 20.9265 136.068 17.4029V4C136.068 1.79086 137.858 0 140.068 0H156C158.209 0 160 1.79086 160 4V26.6729C160 28.1825 159.13 29.5357 157.876 30.3764C152.523 33.9654 149 40.0713 149 47C149 53.9287 152.523 60.0346 157.876 63.6236C159.13 64.4642 160 65.8175 160 67.3271V75.4506Z" fill="#51B46C"/>
<defs>
<linearGradient id="paint0_linear_856_18635" x1="79.8907" y1="0" x2="79.8907" y2="88" gradientUnits="userSpaceOnUse">
<stop stop-color="#51B46C"/>
<stop offset="1" stop-color="#E7F5EB"/>
</linearGradient>
</defs>
</svg>
