<svg width="18" height="18" viewBox="0 0 18 18" fill="none" xmlns="http://www.w3.org/2000/svg">
<path d="M9.62496 6.4999C9.62496 6.15472 9.34514 5.8749 8.99996 5.8749C8.65478 5.8749 8.37496 6.15472 8.37496 6.4999L8.37496 8.37492H6.49996C6.15478 8.37492 5.87496 8.65474 5.87496 8.99992C5.87496 9.3451 6.15478 9.62492 6.49996 9.62492H8.37496V11.4999C8.37496 11.8451 8.65478 12.1249 8.99996 12.1249C9.34514 12.1249 9.62496 11.8451 9.62496 11.4999L9.62496 9.62492H11.5C11.8451 9.62492 12.125 9.3451 12.125 8.99992C12.125 8.65474 11.8451 8.37492 11.5 8.37492H9.62496V6.4999Z" fill="white"/>
<path fill-rule="evenodd" clip-rule="evenodd" d="M8.99996 0.0415649C4.05241 0.0415649 0.041626 4.05235 0.041626 8.9999C0.041626 13.9474 4.05241 17.9582 8.99996 17.9582C13.9475 17.9582 17.9583 13.9474 17.9583 8.9999C17.9583 4.05235 13.9475 0.0415649 8.99996 0.0415649ZM1.29163 8.9999C1.29163 4.7427 4.74276 1.29156 8.99996 1.29156C13.2572 1.29156 16.7083 4.7427 16.7083 8.9999C16.7083 13.2571 13.2572 16.7082 8.99996 16.7082C4.74276 16.7082 1.29163 13.2571 1.29163 8.9999Z" fill="white"/>
</svg>
