<svg width="48" height="62" viewBox="0 0 48 62" fill="none" xmlns="http://www.w3.org/2000/svg">
<path opacity="0.5" d="M37.3333 24C37.3333 31.3638 31.3638 37.3333 24 37.3333C16.6362 37.3333 10.6666 31.3638 10.6666 24C10.6666 16.6362 16.6362 10.6667 24 10.6667C31.3638 10.6667 37.3333 16.6362 37.3333 24Z" fill="#757575"/>
<path d="M30.4092 33.3483C28.5863 34.6005 26.3787 35.3333 24 35.3333C21.6212 35.3333 19.4136 34.6005 17.5906 33.3482C16.7855 32.7951 16.4414 31.7415 16.9095 30.8842C17.88 29.107 19.8796 28 23.9999 28C28.1203 28 30.12 29.107 31.0904 30.8843C31.5585 31.7416 31.2144 32.7952 30.4092 33.3483Z" fill="#757575"/>
<path d="M24 24C26.2092 24 28 22.2091 28 20C28 17.7909 26.2092 16 24 16C21.7909 16 20 17.7909 20 20C20 22.2091 21.7909 24 24 24Z" fill="#757575"/>
<path d="M9.52355 53V45.55H12.0836C12.5702 45.55 12.9969 45.6467 13.3636 45.84C13.7302 46.0267 14.0136 46.2933 14.2136 46.64C14.4202 46.98 14.5236 47.3767 14.5236 47.83C14.5236 48.2833 14.4202 48.68 14.2136 49.02C14.0136 49.36 13.7302 49.6267 13.3636 49.82C13.0036 50.0067 12.5769 50.1 12.0836 50.1H10.3236V53H9.52355ZM10.3236 49.35H12.1236C12.4436 49.35 12.7236 49.29 12.9636 49.17C13.2036 49.0433 13.3902 48.8667 13.5236 48.64C13.6569 48.4067 13.7236 48.1333 13.7236 47.82C13.7236 47.5067 13.6569 47.2367 13.5236 47.01C13.3902 46.7833 13.2036 46.61 12.9636 46.49C12.7236 46.3633 12.4436 46.3 12.1236 46.3H10.3236V49.35ZM15.8393 53V47.64H16.5893V48.52L16.4893 48.39C16.616 48.1367 16.806 47.9367 17.0593 47.79C17.3193 47.6433 17.6327 47.57 17.9993 47.57H18.3393V48.32H17.8693C17.4827 48.32 17.1727 48.44 16.9393 48.68C16.706 48.92 16.5893 49.26 16.5893 49.7V53H15.8393ZM21.7282 53.12C21.2216 53.12 20.7616 53 20.3482 52.76C19.9349 52.5133 19.6049 52.18 19.3582 51.76C19.1182 51.3333 18.9982 50.85 18.9982 50.31C18.9982 49.7767 19.1182 49.3 19.3582 48.88C19.5982 48.46 19.9216 48.13 20.3282 47.89C20.7416 47.6433 21.2082 47.52 21.7282 47.52C22.2482 47.52 22.7116 47.64 23.1182 47.88C23.5316 48.12 23.8549 48.45 24.0882 48.87C24.3282 49.29 24.4482 49.77 24.4482 50.31C24.4482 50.8567 24.3249 51.3433 24.0782 51.77C23.8316 52.19 23.5016 52.52 23.0882 52.76C22.6816 53 22.2282 53.12 21.7282 53.12ZM21.7282 52.37C22.0882 52.37 22.4116 52.28 22.6982 52.1C22.9916 51.92 23.2216 51.6733 23.3882 51.36C23.5616 51.0467 23.6482 50.6967 23.6482 50.31C23.6482 49.9233 23.5616 49.5767 23.3882 49.27C23.2216 48.9633 22.9916 48.72 22.6982 48.54C22.4116 48.36 22.0882 48.27 21.7282 48.27C21.3682 48.27 21.0416 48.36 20.7482 48.54C20.4616 48.72 20.2316 48.9633 20.0582 49.27C19.8849 49.5767 19.7982 49.9233 19.7982 50.31C19.7982 50.6967 19.8849 51.0467 20.0582 51.36C20.2316 51.6733 20.4616 51.92 20.7482 52.1C21.0416 52.28 21.3682 52.37 21.7282 52.37ZM26.1257 53V48.39H25.0557V47.64H26.1257V47.16C26.1257 46.7867 26.209 46.4733 26.3757 46.22C26.5423 45.96 26.7623 45.7633 27.0357 45.63C27.309 45.4967 27.6023 45.43 27.9157 45.43C27.9823 45.43 28.059 45.4367 28.1457 45.45C28.2323 45.4567 28.3023 45.4667 28.3557 45.48V46.16C28.309 46.1467 28.2457 46.14 28.1657 46.14C28.0857 46.1333 28.029 46.13 27.9957 46.13C27.6757 46.13 27.409 46.2067 27.1957 46.36C26.9823 46.5133 26.8757 46.78 26.8757 47.16V47.64H28.1857V48.39H26.8757V53H26.1257ZM29.4038 53V47.64H30.1538V53H29.4038ZM29.4038 46.65V45.55H30.1538V46.65H29.4038ZM31.6889 53V45.43H32.4389V53H31.6889ZM36.4141 53.12C35.9141 53.12 35.4608 53 35.0541 52.76C34.6541 52.5133 34.3374 52.1767 34.1041 51.75C33.8708 51.3233 33.7541 50.84 33.7541 50.3C33.7541 49.76 33.8674 49.2833 34.0941 48.87C34.3208 48.45 34.6274 48.12 35.0141 47.88C35.4074 47.64 35.8474 47.52 36.3341 47.52C36.7208 47.52 37.0641 47.5933 37.3641 47.74C37.6708 47.88 37.9308 48.0733 38.1441 48.32C38.3574 48.56 38.5208 48.8333 38.6341 49.14C38.7474 49.44 38.8041 49.75 38.8041 50.07C38.8041 50.1367 38.8008 50.2133 38.7941 50.3C38.7874 50.38 38.7774 50.4633 38.7641 50.55H34.2341V49.85H38.3341L37.9741 50.15C38.0341 49.7833 37.9908 49.4567 37.8441 49.17C37.7041 48.8767 37.5008 48.6467 37.2341 48.48C36.9674 48.3067 36.6674 48.22 36.3341 48.22C36.0008 48.22 35.6908 48.3067 35.4041 48.48C35.1241 48.6533 34.9041 48.8967 34.7441 49.21C34.5841 49.5167 34.5208 49.8833 34.5541 50.31C34.5208 50.7367 34.5874 51.11 34.7541 51.43C34.9274 51.7433 35.1608 51.9867 35.4541 52.16C35.7541 52.3333 36.0741 52.42 36.4141 52.42C36.8074 52.42 37.1374 52.3267 37.4041 52.14C37.6708 51.9533 37.8874 51.72 38.0541 51.44L38.6941 51.78C38.5874 52.02 38.4241 52.2433 38.2041 52.45C37.9841 52.65 37.7208 52.8133 37.4141 52.94C37.1141 53.06 36.7808 53.12 36.4141 53.12Z" fill="#757575"/>
</svg>
