<svg width="56" height="56" viewBox="0 0 56 56" fill="none" xmlns="http://www.w3.org/2000/svg">
<rect width="56" height="56" rx="28" fill="#269544"/>
<path d="M18.8388 19.0599C18.6666 19.3025 18.6666 19.6461 18.6666 20.3333C18.6666 21.0205 18.6666 21.3642 18.8388 21.6068C18.8995 21.6924 18.9743 21.7671 19.0599 21.8279C19.3025 22 19.6461 22 20.3333 22C21.0205 22 21.3641 22 21.6067 21.8279C21.6923 21.7671 21.7671 21.6924 21.8278 21.6068C22 21.3642 22 21.0205 22 20.3333C22 19.6461 22 19.3025 21.8278 19.0599C21.7671 18.9743 21.6923 18.8996 21.6067 18.8388C21.3641 18.6667 21.0205 18.6667 20.3333 18.6667C19.6461 18.6667 19.3025 18.6667 19.0599 18.8388C18.9743 18.8996 18.8995 18.9743 18.8388 19.0599Z" fill="white"/>
<path fill-rule="evenodd" clip-rule="evenodd" d="M23.6055 13.7203C24.1953 13.7764 24.745 13.898 25.2491 14.207C25.7425 14.5093 26.1573 14.9241 26.4596 15.4175C26.7686 15.9217 26.8903 16.4713 26.9464 17.0611C27 17.6253 27 18.3199 27 19.1523L27 20.736C27 21.934 27 22.9329 26.8934 23.726C26.7809 24.563 26.5333 25.3188 25.926 25.9261C25.3187 26.5334 24.563 26.7809 23.7259 26.8935C22.9329 27.0001 21.934 27 20.736 27L19.1524 27C18.32 27 17.6253 27 17.0611 26.9464C16.4713 26.8903 15.9216 26.7686 15.4175 26.4597C14.9241 26.1574 14.5093 25.7425 14.2069 25.2492C13.898 24.745 13.7763 24.1954 13.7202 23.6055C13.6666 23.0413 13.6666 22.3467 13.6666 21.5143V21.4165C13.6666 20.1497 13.6666 19.1281 13.7448 18.3057C13.8254 17.4576 13.9962 16.7186 14.4034 16.0542C14.8157 15.3814 15.3814 14.8158 16.0541 14.4035C16.7186 13.9963 17.4575 13.8255 18.3057 13.7448C19.128 13.6666 20.1496 13.6667 21.4164 13.6667H21.5142C22.3466 13.6667 23.0413 13.6666 23.6055 13.7203ZM23.4162 15.7113C22.9579 15.6677 22.3589 15.6667 21.4666 15.6667C20.1379 15.6667 19.2116 15.6677 18.495 15.7359C17.7932 15.8026 17.3965 15.9265 17.0991 16.1088C16.6955 16.3561 16.3561 16.6955 16.1087 17.0992C15.9265 17.3966 15.8025 17.7933 15.7358 18.495C15.6677 19.2116 15.6666 20.1379 15.6666 21.4667C15.6666 22.359 15.6677 22.9579 15.7113 23.4162C15.7534 23.8597 15.8282 24.0671 15.9122 24.2042C16.0497 24.4284 16.2382 24.617 16.4625 24.7544C16.5996 24.8384 16.807 24.9132 17.2504 24.9554C17.7087 24.999 18.3077 25 19.2 25H20.6666C21.952 25 22.8154 24.9979 23.4594 24.9113C24.0747 24.8286 24.3381 24.6856 24.5118 24.5119C24.6856 24.3381 24.8285 24.0748 24.9112 23.4595C24.9978 22.8154 25 21.952 25 20.6667V19.2C25 18.3077 24.9989 17.7087 24.9553 17.2504C24.9132 16.807 24.8384 16.5996 24.7544 16.4625C24.6169 16.2383 24.4284 16.0497 24.2041 15.9123C24.067 15.8283 23.8596 15.7535 23.4162 15.7113Z" fill="white"/>
<path d="M34.1721 19.0599C34 19.3025 34 19.6461 34 20.3333C34 21.0205 34 21.3642 34.1721 21.6068C34.2328 21.6924 34.3076 21.7671 34.3932 21.8279C34.6358 22 34.9794 22 35.6666 22C36.3538 22 36.6974 22 36.9401 21.8279C37.0257 21.7671 37.1004 21.6924 37.1612 21.6068C37.3333 21.3642 37.3333 21.0205 37.3333 20.3333C37.3333 19.6461 37.3333 19.3025 37.1612 19.0599C37.1004 18.9743 37.0257 18.8996 36.9401 18.8388C36.6974 18.6667 36.3538 18.6667 35.6666 18.6667C34.9794 18.6667 34.6358 18.6667 34.3932 18.8388C34.3076 18.8996 34.2328 18.9743 34.1721 19.0599Z" fill="white"/>
<path fill-rule="evenodd" clip-rule="evenodd" d="M34.4857 13.6667H34.5835C35.8502 13.6667 36.8719 13.6666 37.6943 13.7448C38.5424 13.8255 39.2813 13.9963 39.9458 14.4035C40.6186 14.8158 41.1842 15.3814 41.5965 16.0542C42.0037 16.7186 42.1745 17.4576 42.2551 18.3057C42.3333 19.1281 42.3333 20.1497 42.3333 21.4165V21.5143C42.3333 22.3467 42.3333 23.0413 42.2797 23.6055C42.2236 24.1954 42.1019 24.745 41.793 25.2492C41.4906 25.7425 41.0758 26.1574 40.5825 26.4597C40.0783 26.7686 39.5286 26.8903 38.9388 26.9464C38.3747 27 37.6801 27 36.8478 27L35.264 27C34.066 27 33.067 27.0001 32.274 26.8935C31.4369 26.7809 30.6812 26.5334 30.0739 25.9261C29.4666 25.3188 29.2191 24.563 29.1065 23.726C28.9999 22.9329 28.9999 21.934 29 20.736V19.1524C28.9999 18.32 28.9999 17.6254 29.0536 17.0611C29.1097 16.4713 29.2313 15.9217 29.5403 15.4175C29.8426 14.9241 30.2574 14.5093 30.7508 14.207C31.255 13.898 31.8046 13.7764 32.3944 13.7203C32.9586 13.6666 33.6533 13.6667 34.4857 13.6667ZM32.5837 15.7113C32.1403 15.7535 31.9329 15.8283 31.7958 15.9123C31.5715 16.0497 31.383 16.2383 31.2456 16.4625C31.1616 16.5996 31.0868 16.807 31.0446 17.2504C31.001 17.7087 31 18.3077 31 19.2V20.6667C31 21.952 31.0021 22.8154 31.0887 23.4595C31.1714 24.0748 31.3144 24.3381 31.4881 24.5119C31.6619 24.6856 31.9252 24.8286 32.5405 24.9113C33.1845 24.9979 34.0479 25 35.3333 25H36.8C37.6922 25 38.2912 24.999 38.7495 24.9554C39.1929 24.9132 39.4004 24.8384 39.5375 24.7544C39.7617 24.617 39.9503 24.4284 40.0877 24.2042C40.1717 24.0671 40.2465 23.8597 40.2887 23.4162C40.3322 22.9579 40.3333 22.359 40.3333 21.4667C40.3333 20.1379 40.3322 19.2116 40.2641 18.495C40.1974 17.7933 40.0735 17.3966 39.8912 17.0992C39.6438 16.6955 39.3045 16.3561 38.9008 16.1088C38.6034 15.9265 38.2067 15.8026 37.505 15.7359C36.7884 15.6677 35.862 15.6667 34.5333 15.6667C33.641 15.6667 33.042 15.6677 32.5837 15.7113Z" fill="white"/>
<path d="M18.6666 35.6667C18.6666 34.9795 18.6666 34.6359 18.8388 34.3932C18.8995 34.3076 18.9743 34.2329 19.0599 34.1722C19.3025 34 19.6461 34 20.3333 34C21.0205 34 21.3641 34 21.6067 34.1722C21.6923 34.2329 21.7671 34.3076 21.8278 34.3932C22 34.6359 22 34.9795 22 35.6667C22 36.3539 22 36.6975 21.8278 36.9401C21.7671 37.0257 21.6923 37.1005 21.6067 37.1612C21.3641 37.3333 21.0205 37.3333 20.3333 37.3333C19.6461 37.3333 19.3025 37.3333 19.0599 37.1612C18.9743 37.1005 18.8995 37.0257 18.8388 36.9401C18.6666 36.6975 18.6666 36.3539 18.6666 35.6667Z" fill="white"/>
<path fill-rule="evenodd" clip-rule="evenodd" d="M23.7259 29.1066C24.563 29.2191 25.3187 29.4667 25.926 30.0739C26.5333 30.6812 26.7809 31.437 26.8934 32.274C27 33.0671 27 34.066 27 35.264L27 36.8476C27 37.6799 27 38.3747 26.9464 38.9389C26.8903 39.5287 26.7686 40.0783 26.4596 40.5825C26.1573 41.0759 25.7425 41.4907 25.2491 41.793C24.745 42.102 24.1953 42.2237 23.6055 42.2797C23.0413 42.3334 22.3466 42.3334 21.5142 42.3333H21.4164C20.1497 42.3334 19.1281 42.3334 18.3057 42.2552C17.4575 42.1745 16.7186 42.0037 16.0541 41.5965C15.3814 41.1843 14.8157 40.6186 14.4034 39.9458C13.9962 39.2814 13.8254 38.5424 13.7448 37.6943C13.6666 36.8719 13.6666 35.8503 13.6666 34.5836V34.4858C13.6666 33.6534 13.6666 32.9587 13.7202 32.3945C13.7763 31.8047 13.898 31.255 14.2069 30.7508C14.5093 30.2575 14.9241 29.8427 15.4175 29.5403C15.9216 29.2314 16.4713 29.1097 17.0611 29.0536C17.6253 29 18.32 29 19.1524 29H20.736C21.9339 29 22.9329 28.9999 23.7259 29.1066ZM23.4594 31.0887C22.8154 31.0021 21.952 31 20.6666 31H19.2C18.3077 31 17.7087 31.0011 17.2504 31.0446C16.807 31.0868 16.5996 31.1616 16.4625 31.2456C16.2382 31.383 16.0497 31.5716 15.9122 31.7958C15.8282 31.9329 15.7534 32.1404 15.7113 32.5838C15.6677 33.0421 15.6666 33.6411 15.6666 34.5333C15.6666 35.8621 15.6677 36.7884 15.7358 37.505C15.8025 38.2067 15.9265 38.6034 16.1087 38.9008C16.3561 39.3045 16.6955 39.6439 17.0991 39.8913C17.3965 40.0735 17.7932 40.1974 18.495 40.2642C19.2116 40.3323 20.1379 40.3333 21.4666 40.3333C22.3589 40.3333 22.9579 40.3323 23.4162 40.2887C23.8596 40.2465 24.067 40.1718 24.2041 40.0877C24.4284 39.9503 24.6169 39.7618 24.7544 39.5375C24.8384 39.4004 24.9132 39.193 24.9553 38.7496C24.9989 38.2913 25 37.6923 25 36.8V35.3333C25 34.048 24.9978 33.1846 24.9112 32.5405C24.8285 31.9252 24.6856 31.6619 24.5118 31.4882C24.3381 31.3144 24.0747 31.1714 23.4594 31.0887Z" fill="white"/>
<path d="M34.6155 29L37.3333 29V31H34.6666C33.7095 31 33.0669 31.0012 32.5771 31.0511C32.1039 31.0992 31.8853 31.1843 31.7407 31.2809C31.5587 31.4025 31.4024 31.5587 31.2808 31.7407C31.1842 31.8853 31.0991 32.104 31.051 32.5771C31.0012 33.067 31 33.7096 31 34.6667H29L29 34.6155C28.9999 33.7228 28.9999 32.9778 29.0613 32.3747C29.1255 31.7434 29.2651 31.1576 29.6179 30.6296C29.8854 30.2292 30.2292 29.8855 30.6295 29.618C31.1575 29.2652 31.7434 29.1255 32.3747 29.0613C32.9778 29 33.7227 29 34.6155 29Z" fill="white"/>
<path d="M29 41.3333V37.3333H31V41.3333C31 41.8856 30.5522 42.3333 30 42.3333C29.4477 42.3333 29 41.8856 29 41.3333Z" fill="white"/>
<path d="M42.3333 30C42.3333 29.4477 41.8856 29 41.3333 29C40.781 29 40.3333 29.4477 40.3333 30V34.6667H42.3333V30Z" fill="white"/>
<path d="M40.3333 37.3333C40.3333 37.9683 40.3328 38.3944 40.3102 38.7244C40.2883 39.0453 40.249 39.2016 40.2064 39.3045C40.0373 39.7129 39.7128 40.0373 39.3044 40.2065C39.2016 40.2491 39.0453 40.2884 38.7243 40.3103C38.3944 40.3328 37.9682 40.3333 37.3333 40.3333H34.6666V42.3333H37.367C37.9595 42.3333 38.4543 42.3334 38.8604 42.3056C39.2832 42.2768 39.6826 42.2146 40.0698 42.0542C40.9682 41.6821 41.682 40.9683 42.0542 40.0698C42.2146 39.6827 42.2768 39.2833 42.3056 38.8605C42.3333 38.4544 42.3333 37.9597 42.3333 37.3671V37.3333H40.3333Z" fill="white"/>
<path d="M33.558 33.9259C33.3333 34.2622 33.3333 34.7304 33.3333 35.6667C33.3333 36.603 33.3333 37.0711 33.558 37.4074C33.6553 37.553 33.7803 37.678 33.9259 37.7753C34.2622 38 34.7303 38 35.6666 38C36.6029 38 37.0711 38 37.4074 37.7753C37.553 37.678 37.678 37.553 37.7753 37.4074C38 37.0711 38 36.603 38 35.6667C38 34.7304 38 34.2622 37.7753 33.9259C37.678 33.7803 37.553 33.6553 37.4074 33.558C37.0711 33.3333 36.6029 33.3333 35.6666 33.3333C34.7303 33.3333 34.2622 33.3333 33.9259 33.558C33.7803 33.6553 33.6553 33.7803 33.558 33.9259Z" fill="white"/>
</svg>
