<svg width="56" height="45" viewBox="0 0 56 45" fill="none" xmlns="http://www.w3.org/2000/svg">
<rect y="9" width="56" height="36" rx="8" fill="#212122"/>
<path d="M18.6151 24.608H16.6951V23.228H20.0791V32H18.6151V24.608ZM23.0244 31.892L23.1684 31.856C23.1044 31.912 23.0324 31.956 22.9524 31.988C22.8804 32.012 22.7924 32.024 22.6884 32.024C22.4564 32.024 22.2564 31.948 22.0884 31.796C21.9204 31.636 21.8364 31.436 21.8364 31.196C21.8364 30.908 21.9204 30.676 22.0884 30.5C22.2564 30.324 22.4764 30.236 22.7484 30.236C23.0524 30.236 23.3004 30.348 23.4924 30.572C23.6844 30.796 23.7804 31.096 23.7804 31.472C23.7804 31.8 23.7084 32.1 23.5644 32.372C23.4204 32.652 23.2204 32.88 22.9644 33.056C22.7084 33.232 22.4164 33.34 22.0884 33.38V32.792C22.3604 32.744 22.5844 32.64 22.7604 32.48C22.9364 32.328 23.0244 32.132 23.0244 31.892ZM31.1965 31.988L25.1125 32V30.848L27.9805 28.424C28.2765 28.176 28.5245 27.948 28.7245 27.74C28.9325 27.532 29.0965 27.336 29.2165 27.152C29.3365 26.968 29.4245 26.784 29.4805 26.6C29.5365 26.416 29.5645 26.216 29.5645 26C29.5645 25.504 29.4365 25.12 29.1805 24.848C28.9245 24.576 28.5645 24.44 28.1005 24.44C27.6205 24.44 27.2405 24.6 26.9605 24.92C26.6805 25.24 26.5365 25.68 26.5285 26.24H25.0045C25.0125 25.6 25.1445 25.044 25.4005 24.572C25.6565 24.092 26.0165 23.724 26.4805 23.468C26.9445 23.204 27.4845 23.072 28.1005 23.072C28.7245 23.072 29.2605 23.188 29.7085 23.42C30.1645 23.644 30.5165 23.968 30.7645 24.392C31.0125 24.816 31.1365 25.324 31.1365 25.916C31.1365 26.22 31.0925 26.512 31.0045 26.792C30.9245 27.064 30.8005 27.332 30.6325 27.596C30.4645 27.852 30.2565 28.112 30.0085 28.376C29.7605 28.64 29.4685 28.916 29.1325 29.204L26.9965 31.028L26.4445 30.56H31.1965V31.988ZM39.499 23.228L33.775 30.596V28.304L37.687 23.228H39.499ZM34.135 23.228V32H32.599V23.228H34.135ZM35.527 28.16L36.511 26.84L39.535 32H37.759L35.527 28.16Z" fill="white"/>
<path d="M27.1962 0L37.1962 9H17.5L27.1962 0Z" fill="#212122"/>
</svg>
