<svg width="121" height="120" viewBox="0 0 121 120" fill="none" xmlns="http://www.w3.org/2000/svg">
<g clip-path="url(#clip0_1_972)">
<g filter="url(#filter0_d_1_972)">
<path d="M48.4618 16.0015C47.2443 17.0391 46.6355 17.5579 45.9853 17.9937C44.4948 18.9927 42.8209 19.6861 41.0605 20.0336C40.2925 20.1852 39.4952 20.2489 37.9004 20.3761L37.9003 20.3761C33.8935 20.6959 31.89 20.8558 30.2185 21.4461C26.3525 22.8117 23.3117 25.8525 21.9461 29.7185C21.3558 31.39 21.1959 33.3935 20.8761 37.4003L20.8761 37.4004C20.7489 38.9952 20.6852 39.7925 20.5336 40.5605C20.1861 42.3209 19.4927 43.9948 18.4937 45.4853C18.0579 46.1355 17.5391 46.7443 16.5014 47.9619L16.5014 47.962C13.8942 51.0214 12.5905 52.5512 11.8261 54.1505C10.058 57.8498 10.058 62.1502 11.8261 65.8495C12.5905 67.4488 13.8941 68.9785 16.5013 72.0379L16.5014 72.038L16.5015 72.0381C17.539 73.2555 18.0579 73.8645 18.4937 74.5147C19.4927 76.0052 20.1861 77.6791 20.5336 79.4395C20.6852 80.2074 20.7489 81.0048 20.8761 82.5996L20.8761 82.5997C21.1959 86.6065 21.3558 88.61 21.9461 90.2814C23.3117 94.1474 26.3525 97.1883 30.2185 98.5538C31.89 99.1442 33.8934 99.3041 37.9003 99.6239H37.9004C39.4952 99.7511 40.2925 99.8148 41.0605 99.9664C42.8209 100.314 44.4948 101.007 45.9853 102.006C46.6355 102.442 47.2444 102.961 48.462 103.999C51.5214 106.606 53.0511 107.909 54.6505 108.674C58.3498 110.442 62.6502 110.442 66.3495 108.674C67.9488 107.909 69.4785 106.606 72.538 103.999C73.7556 102.961 74.3645 102.442 75.0147 102.006C76.5052 101.007 78.1791 100.314 79.9395 99.9664C80.7074 99.8148 81.5048 99.7511 83.0996 99.6239H83.0997C87.1065 99.3041 89.11 99.1442 90.7814 98.5538C94.6474 97.1883 97.6883 94.1474 99.0538 90.2814C99.6442 88.61 99.8041 86.6065 100.124 82.5997V82.5996C100.251 81.0048 100.315 80.2074 100.466 79.4395C100.814 77.6791 101.507 76.0052 102.506 74.5147C102.942 73.8645 103.461 73.2556 104.499 72.038C107.106 68.9785 108.409 67.4488 109.174 65.8495C110.942 62.1502 110.942 57.8498 109.174 54.1505C108.409 52.5511 107.106 51.0214 104.499 47.962C103.461 46.7444 102.942 46.1355 102.506 45.4853C101.507 43.9948 100.814 42.3209 100.466 40.5605C100.315 39.7925 100.251 38.9952 100.124 37.4004V37.4003C99.8041 33.3934 99.6442 31.39 99.0538 29.7185C97.6883 25.8525 94.6474 22.8117 90.7814 21.4461C89.11 20.8558 87.1065 20.6959 83.0997 20.3761L83.0996 20.3761C81.5048 20.2489 80.7074 20.1852 79.9395 20.0336C78.1791 19.6861 76.5052 18.9927 75.0147 17.9937C74.3645 17.5579 73.7556 17.039 72.538 16.0014L72.5379 16.0013C69.4785 13.3941 67.9488 12.0905 66.3495 11.3261C62.6502 9.55797 58.3498 9.55797 54.6505 11.3261C53.0512 12.0905 51.5214 13.3942 48.462 16.0014L48.4618 16.0015Z" fill="#6AB86C"/>
</g>
<path d="M82.3678 49.3149C83.9569 47.7257 83.9569 45.1492 82.3678 43.56C80.7786 41.9709 78.2021 41.9709 76.6129 43.56L52.3617 67.8113L44.3876 59.8372C42.7985 58.2481 40.2219 58.2481 38.6328 59.8372C37.0436 61.4264 37.0436 64.0029 38.6328 65.5921L49.4843 76.4436C51.0734 78.0327 53.6499 78.0327 55.2391 76.4436L82.3678 49.3149Z" fill="white"/>
</g>
<defs>
<filter id="filter0_d_1_972" x="-4.5" y="-5" width="130" height="130" filterUnits="userSpaceOnUse" color-interpolation-filters="sRGB">
<feFlood flood-opacity="0" result="BackgroundImageFix"/>
<feColorMatrix in="SourceAlpha" type="matrix" values="0 0 0 0 0 0 0 0 0 0 0 0 0 0 0 0 0 0 127 0" result="hardAlpha"/>
<feOffset/>
<feGaussianBlur stdDeviation="7.5"/>
<feComposite in2="hardAlpha" operator="out"/>
<feColorMatrix type="matrix" values="0 0 0 0 0 0 0 0 0 0 0 0 0 0 0 0 0 0 0.2 0"/>
<feBlend mode="normal" in2="BackgroundImageFix" result="effect1_dropShadow_1_972"/>
<feBlend mode="normal" in="SourceGraphic" in2="effect1_dropShadow_1_972" result="shape"/>
</filter>
<clipPath id="clip0_1_972">
<rect width="120" height="120" fill="white" transform="translate(0.5)"/>
</clipPath>
</defs>
</svg>
