<svg width="345" height="120" viewBox="0 0 345 120" fill="none" xmlns="http://www.w3.org/2000/svg">
<path d="M262.712 92.3333L262.693 99.0097C262.688 100.577 262.686 101.36 262.198 101.847C261.71 102.333 260.927 102.333 259.36 102.333H33.3167C20.7146 102.333 14.4135 102.333 10.4986 98.4281C7.80299 95.7392 6.9634 91.922 6.70188 85.7018C6.65002 84.4682 6.62409 83.8514 6.85444 83.4399C7.08479 83.0284 8.0044 82.5149 9.84356 81.4878C11.8861 80.3472 13.2669 62.1677 13.2669 59.6667C13.2669 57.1656 11.8861 38.9862 9.84356 37.8455C8.00438 36.8185 7.08479 36.3049 6.85444 35.8934C6.62409 35.4819 6.65002 34.8651 6.70188 33.6316C6.9634 27.4113 7.80299 23.5941 10.4986 20.9052C14.4135 17 20.7146 17 33.3167 17H261.017C261.938 17 262.685 17.7433 262.688 18.6618L262.712 27C262.712 28.8409 264.208 30.3333 266.054 30.3333C267.899 30.3333 269.396 28.8409 269.396 27V18.7206C269.396 17.7906 270.161 17.039 271.093 17.063C278.317 17.2493 330.576 17.9868 333.501 20.9052C336.197 23.5941 337.037 27.4113 337.298 33.6316C337.35 34.8651 337.376 35.4819 337.145 35.8934C336.915 36.3049 335.996 36.8185 334.156 37.8455C332.114 38.9862 330.733 57.1656 330.733 59.6667C330.733 62.1677 332.114 80.3471 334.156 81.4878C335.996 82.5149 336.915 83.0284 337.145 83.4399C337.376 83.8514 337.35 84.4682 337.298 85.7018C337.037 91.922 336.197 95.7392 333.501 98.4281C330.811 101.112 278.994 101.951 272.779 102.214C271.208 102.28 270.422 102.313 269.909 101.821C269.396 101.329 269.396 100.527 269.396 98.9216V92.3333C269.396 90.4924 267.899 89 266.054 89C264.208 89 262.712 90.4924 262.712 92.3333Z" fill="#269544"/>
<path d="M305 52C305 47.5817 306.582 44 311 44C315.418 44 317 47.5817 317 52V68C317 72.4183 315.418 76 311 76C306.582 76 305 72.4183 305 68V52Z" fill="#F0F2F5"/>
<path d="M73.4511 68V55.5H69.5911V53.1H79.9911V55.5H76.1911V68H73.4511ZM82.1509 68V53.1H84.8709V68H82.1509ZM88.2369 68V53.1H90.9569V60.86L90.2169 60.6L96.5569 53.1H99.9769L94.0369 60.14L94.1969 58.22L100.157 68H96.9569L92.9569 61.44L90.9569 63.82V68H88.2369ZM102.311 68V53.1H112.211V55.5H105.031V59.32H111.811V61.72H105.031V65.6H112.211V68H102.311ZM117.346 68V55.5H113.486V53.1H123.886V55.5H120.086V68H117.346ZM130.1 68V53.1H132.7L138.28 60.68H137.04L142.5 53.1H145.1V68H142.36V56.2L143.42 56.46L137.76 64H137.44L131.92 56.46L132.82 56.2V68H130.1ZM147.232 68L152.372 53.1H155.892L161.032 68H158.072L157.012 64.8H151.252L150.172 68H147.232ZM152.032 62.4H156.232L153.752 54.98H154.512L152.032 62.4ZM168.51 68.24C167.563 68.24 166.683 68.0667 165.87 67.72C165.07 67.3733 164.377 66.8933 163.79 66.28C163.217 65.6533 162.797 64.9267 162.53 64.1L164.79 63.12C165.15 63.9733 165.67 64.6467 166.35 65.14C167.03 65.62 167.797 65.86 168.65 65.86C169.13 65.86 169.543 65.7867 169.89 65.64C170.25 65.48 170.523 65.2667 170.71 65C170.91 64.7333 171.01 64.4133 171.01 64.04C171.01 63.6 170.877 63.24 170.61 62.96C170.357 62.6667 169.97 62.44 169.45 62.28L166.59 61.36C165.43 61 164.557 60.46 163.97 59.74C163.383 59.02 163.09 58.1733 163.09 57.2C163.09 56.3467 163.297 55.5933 163.71 54.94C164.137 54.2867 164.723 53.78 165.47 53.42C166.23 53.0467 167.097 52.86 168.07 52.86C168.963 52.86 169.783 53.02 170.53 53.34C171.277 53.6467 171.917 54.08 172.45 54.64C172.997 55.1867 173.403 55.8333 173.67 56.58L171.43 57.58C171.137 56.8333 170.697 56.26 170.11 55.86C169.523 55.4467 168.843 55.24 168.07 55.24C167.617 55.24 167.217 55.32 166.87 55.48C166.523 55.6267 166.25 55.84 166.05 56.12C165.863 56.3867 165.77 56.7067 165.77 57.08C165.77 57.4933 165.903 57.86 166.17 58.18C166.437 58.4867 166.843 58.7267 167.39 58.9L170.13 59.76C171.317 60.1467 172.203 60.68 172.79 61.36C173.39 62.04 173.69 62.88 173.69 63.88C173.69 64.7333 173.47 65.4867 173.03 66.14C172.59 66.7933 171.983 67.3067 171.21 67.68C170.437 68.0533 169.537 68.24 168.51 68.24ZM182.379 68.24C181.233 68.24 180.213 68 179.319 67.52C178.439 67.04 177.746 66.38 177.239 65.54C176.733 64.7 176.479 63.7467 176.479 62.68V53.1H179.199V62.54C179.199 63.1533 179.333 63.7067 179.599 64.2C179.879 64.6933 180.259 65.08 180.739 65.36C181.219 65.6267 181.766 65.76 182.379 65.76C183.006 65.76 183.553 65.6267 184.019 65.36C184.499 65.08 184.873 64.6933 185.139 64.2C185.419 63.7067 185.559 63.1533 185.559 62.54V53.1H188.279V62.68C188.279 63.7467 188.026 64.7 187.519 65.54C187.013 66.38 186.313 67.04 185.419 67.52C184.539 68 183.526 68.24 182.379 68.24ZM191.495 68V53.1H194.215V60.86L193.475 60.6L199.815 53.1H203.235L197.295 60.14L197.455 58.22L203.415 68H200.215L196.215 61.44L194.215 63.82V68H191.495Z" fill="#F0F2F5"/>
</svg>
