<svg width="345" height="120" viewBox="0 0 345 120" fill="none" xmlns="http://www.w3.org/2000/svg">
<path d="M262.712 92.3333L262.693 99.0097C262.688 100.577 262.686 101.36 262.198 101.847C261.71 102.333 260.927 102.333 259.36 102.333H33.3167C20.7146 102.333 14.4135 102.333 10.4986 98.4281C7.80299 95.7392 6.9634 91.922 6.70188 85.7018C6.65002 84.4682 6.62409 83.8514 6.85444 83.4399C7.08479 83.0284 8.0044 82.5149 9.84356 81.4878C11.8861 80.3472 13.2669 62.1677 13.2669 59.6667C13.2669 57.1656 11.8861 38.9862 9.84356 37.8455C8.00438 36.8185 7.08479 36.3049 6.85444 35.8934C6.62409 35.4819 6.65002 34.8651 6.70188 33.6316C6.9634 27.4113 7.80299 23.5941 10.4986 20.9052C14.4135 17 20.7146 17 33.3167 17H261.017C261.938 17 262.685 17.7433 262.688 18.6618L262.712 27C262.712 28.8409 264.208 30.3333 266.054 30.3333C267.899 30.3333 269.396 28.8409 269.396 27V18.7206C269.396 17.7906 270.161 17.039 271.093 17.063C278.317 17.2493 330.576 17.9868 333.501 20.9052C336.197 23.5941 337.037 27.4113 337.298 33.6316C337.35 34.8651 337.376 35.4819 337.145 35.8934C336.915 36.3049 335.996 36.8185 334.156 37.8455C332.114 38.9862 330.733 57.1656 330.733 59.6667C330.733 62.1677 332.114 80.3471 334.156 81.4878C335.996 82.5149 336.915 83.0284 337.145 83.4399C337.376 83.8514 337.35 84.4682 337.298 85.7018C337.037 91.922 336.197 95.7392 333.501 98.4281C330.811 101.112 278.994 101.951 272.779 102.214C271.208 102.28 270.422 102.313 269.909 101.821C269.396 101.329 269.396 100.527 269.396 98.9216V92.3333C269.396 90.4924 267.899 89 266.054 89C264.208 89 262.712 90.4924 262.712 92.3333Z" fill="#952626"/>
<path d="M305 52C305 47.5817 306.582 44 311 44C315.418 44 317 47.5817 317 52V68C317 72.4183 315.418 76 311 76C306.582 76 305 72.4183 305 68V52Z" fill="#F0F2F5"/>
<path d="M70.1132 68V55.5H66.2532V53.1H76.6532V55.5H72.8532V68H70.1132ZM78.813 68V53.1H81.533V68H78.813ZM84.899 68V53.1H87.619V60.86L86.879 60.6L93.219 53.1H96.639L90.699 60.14L90.859 58.22L96.819 68H93.619L89.619 61.44L87.619 63.82V68H84.899ZM98.9732 68V53.1H108.873V55.5H101.693V59.32H108.473V61.72H101.693V65.6H108.873V68H98.9732ZM114.008 68V55.5H110.148V53.1H120.548V55.5H116.748V68H114.008ZM126.762 68V53.1H129.482V60.86L128.742 60.6L135.082 53.1H138.502L132.562 60.14L132.722 58.22L138.682 68H135.482L131.482 61.44L129.482 63.82V68H126.762ZM140.836 68V53.1H150.736V55.5H143.556V59.32H150.336V61.72H143.556V65.6H150.736V68H140.836ZM153.231 68V53.1H155.951V65.6H162.331V68H153.231ZM170.33 68.24C169.184 68.24 168.164 68 167.27 67.52C166.39 67.04 165.697 66.38 165.19 65.54C164.684 64.7 164.43 63.7467 164.43 62.68V53.1H167.15V62.54C167.15 63.1533 167.284 63.7067 167.55 64.2C167.83 64.6933 168.21 65.08 168.69 65.36C169.17 65.6267 169.717 65.76 170.33 65.76C170.957 65.76 171.504 65.6267 171.97 65.36C172.45 65.08 172.824 64.6933 173.09 64.2C173.37 63.7067 173.51 63.1533 173.51 62.54V53.1H176.23V62.68C176.23 63.7467 175.977 64.7 175.47 65.54C174.964 66.38 174.264 67.04 173.37 67.52C172.49 68 171.477 68.24 170.33 68.24ZM178.226 68L183.366 53.1H186.886L192.026 68H189.066L188.006 64.8H182.246L181.166 68H178.226ZM183.026 62.4H187.226L184.746 54.98H185.506L183.026 62.4ZM194.184 68V53.1H199.724C200.737 53.1 201.631 53.2867 202.404 53.66C203.191 54.02 203.804 54.5533 204.244 55.26C204.684 55.9533 204.904 56.8 204.904 57.8C204.904 58.8267 204.657 59.7 204.164 60.42C203.684 61.14 203.031 61.6733 202.204 62.02L205.624 68H202.544L198.884 61.46L200.644 62.5H196.904V68H194.184ZM196.904 60.1H199.764C200.257 60.1 200.684 60.0067 201.044 59.82C201.404 59.62 201.684 59.3467 201.884 59C202.084 58.6533 202.184 58.2533 202.184 57.8C202.184 57.3333 202.084 56.9333 201.884 56.6C201.684 56.2533 201.404 55.9867 201.044 55.8C200.684 55.6 200.257 55.5 199.764 55.5H196.904V60.1Z" fill="#F0F2F5"/>
</svg>
