<svg width="25" height="24" viewBox="0 0 25 24" fill="none" xmlns="http://www.w3.org/2000/svg">
<path d="M12.5 7V13" stroke="#952626" stroke-width="1.5" stroke-linecap="round"/>
<circle cx="12.5" cy="16" r="1" fill="#952626"/>
<path d="M8.34308 3.80211C10.3718 2.6007 11.3862 2 12.5 2C13.6138 2 14.6282 2.6007 16.6569 3.80211L17.3431 4.20846C19.3718 5.40987 20.3862 6.01057 20.9431 7C21.5 7.98943 21.5 9.19084 21.5 11.5937V12.4063C21.5 14.8092 21.5 16.0106 20.9431 17C20.3862 17.9894 19.3718 18.5901 17.3431 19.7915L16.6569 20.1979C14.6282 21.3993 13.6138 22 12.5 22C11.3862 22 10.3718 21.3993 8.34308 20.1979L7.65692 19.7915C5.6282 18.5901 4.61384 17.9894 4.05692 17C3.5 16.0106 3.5 14.8092 3.5 12.4063V11.5937C3.5 9.19084 3.5 7.98943 4.05692 7C4.61384 6.01057 5.6282 5.40987 7.65692 4.20846L8.34308 3.80211Z" stroke="#952626" stroke-width="1.5"/>
</svg>
