<svg width="25" height="24" viewBox="0 0 25 24" fill="none" xmlns="http://www.w3.org/2000/svg">
<path d="M3.25 9.8541C3.25 8.83011 4.08011 8 5.1041 8V8C5.80638 8 6.44839 7.60322 6.76246 6.97508L7.58333 5.33333C7.69329 5.11342 7.74827 5.00346 7.81062 4.90782C8.1359 4.40882 8.66668 4.08078 9.25848 4.01299C9.3719 4 9.49484 4 9.74071 4H14.7593C15.0052 4 15.1281 4 15.2415 4.01299C15.8333 4.08078 16.3641 4.40882 16.6894 4.90782C16.7517 5.00346 16.8067 5.11342 16.9167 5.33333L17.7375 6.97508C18.0516 7.60322 18.6936 8 19.3959 8V8C20.4199 8 21.25 8.83011 21.25 9.8541V14.8571C21.25 16.8619 21.25 17.8643 20.7902 18.5961C20.5504 18.9777 20.2277 19.3004 19.8461 19.5402C19.1143 20 18.1119 20 16.1071 20H8.39286C6.3881 20 5.38571 20 4.6539 19.5402C4.27229 19.3004 3.94961 18.9777 3.70983 18.5961C3.25 17.8643 3.25 16.8619 3.25 14.8571V9.8541Z" stroke="#269544"/>
<circle cx="12.25" cy="13" r="3.5" stroke="#269544"/>
</svg>
