<svg width="16" height="16" viewBox="0 0 16 16" fill="none" xmlns="http://www.w3.org/2000/svg">
<path opacity="0.5" d="M8 14.6667C11.3137 14.6667 14 11.9804 14 8.66669C14 5.35298 11.3137 2.66669 8 2.66669C4.68629 2.66669 2 5.35298 2 8.66669C2 11.9804 4.68629 14.6667 8 14.6667Z" fill="#878787"/>
<path d="M8 6.16669C8.27614 6.16669 8.5 6.39054 8.5 6.66669V8.1667H10C10.2761 8.1667 10.5 8.39056 10.5 8.6667C10.5 8.94285 10.2761 9.1667 10 9.1667H8.5V10.6667C8.5 10.9428 8.27614 11.1667 8 11.1667C7.72386 11.1667 7.5 10.9428 7.5 10.6667V9.1667H6C5.72386 9.1667 5.5 8.94285 5.5 8.6667C5.5 8.39056 5.72386 8.1667 6 8.1667H7.5V6.66669C7.5 6.39054 7.72386 6.16669 8 6.16669Z" fill="#878787"/>
<path fill-rule="evenodd" clip-rule="evenodd" d="M5.49366 1.55988C5.63606 1.78559 5.5668 2.08291 5.33896 2.22398L2.74438 3.83039C2.51654 3.97146 2.21641 3.90284 2.07401 3.67714C1.93161 3.45144 2.00088 3.15411 2.22871 3.01305L4.82329 1.40663C5.05113 1.26557 5.35127 1.33418 5.49366 1.55988Z" fill="#878787"/>
<path fill-rule="evenodd" clip-rule="evenodd" d="M10.5064 1.55988C10.6488 1.33418 10.9489 1.26557 11.1767 1.40663L13.7713 3.01305C13.9991 3.15411 14.0684 3.45144 13.926 3.67714C13.7836 3.90284 13.4835 3.97146 13.2556 3.83039L10.6611 2.22397C10.4332 2.08291 10.364 1.78559 10.5064 1.55988Z" fill="#878787"/>
</svg>
