<svg width="320" height="320" viewBox="0 0 320 320" fill="none" xmlns="http://www.w3.org/2000/svg">
<g clip-path="url(#clip0_1_830)">
<path d="M35 42.8125C35 40.7405 35.8231 38.7534 37.2882 37.2882C38.7534 35.8231 40.7405 35 42.8125 35H89.6875C91.7595 35 93.7466 35.8231 95.2118 37.2882C96.6769 38.7534 97.5 40.7405 97.5 42.8125C97.5 44.8845 96.6769 46.8716 95.2118 48.3368C93.7466 49.8019 91.7595 50.625 89.6875 50.625H63.75C56.5013 50.625 50.625 56.5013 50.625 63.75V89.6875C50.625 91.7595 49.8019 93.7466 48.3368 95.2118C46.8716 96.6769 44.8845 97.5 42.8125 97.5C40.7405 97.5 38.7534 96.6769 37.2882 95.2118C35.8231 93.7466 35 91.7595 35 89.6875V42.8125ZM222.5 42.8125C222.5 40.7405 223.323 38.7534 224.788 37.2882C226.253 35.8231 228.241 35 230.313 35H277.188C279.26 35 281.247 35.8231 282.712 37.2882C284.177 38.7534 285 40.7405 285 42.8125V89.6875C285 91.7595 284.177 93.7466 282.712 95.2118C281.247 96.6769 279.26 97.5 277.188 97.5C275.116 97.5 273.128 96.6769 271.663 95.2118C270.198 93.7466 269.375 91.7595 269.375 89.6875V63.75C269.375 56.5013 263.499 50.625 256.25 50.625H230.313C228.241 50.625 226.253 49.8019 224.788 48.3368C223.323 46.8716 222.5 44.8845 222.5 42.8125ZM42.8125 222.5C44.8845 222.5 46.8716 223.323 48.3368 224.788C49.8019 226.253 50.625 228.241 50.625 230.313V256.25C50.625 263.499 56.5013 269.375 63.75 269.375H89.6875C91.7595 269.375 93.7466 270.198 95.2118 271.663C96.6769 273.128 97.5 275.116 97.5 277.188C97.5 279.26 96.6769 281.247 95.2118 282.712C93.7466 284.177 91.7595 285 89.6875 285H42.8125C40.7405 285 38.7534 284.177 37.2882 282.712C35.8231 281.247 35 279.26 35 277.188V230.313C35 228.241 35.8231 226.253 37.2882 224.788C38.7534 223.323 40.7405 222.5 42.8125 222.5ZM277.188 222.5C279.26 222.5 281.247 223.323 282.712 224.788C284.177 226.253 285 228.241 285 230.313V277.188C285 279.26 284.177 281.247 282.712 282.712C281.247 284.177 279.26 285 277.188 285H230.313C228.241 285 226.253 284.177 224.788 282.712C223.323 281.247 222.5 279.26 222.5 277.188C222.5 275.116 223.323 273.128 224.788 271.663C226.253 270.198 228.241 269.375 230.313 269.375H256.25C263.499 269.375 269.375 263.499 269.375 256.25V230.313C269.375 228.241 270.198 226.253 271.663 224.788C273.128 223.323 275.116 222.5 277.188 222.5Z" fill="white"/>
<circle cx="98.0278" cy="86.0278" r="9.02778" fill="#269544"/>
<path d="M39.8611 160L282.222 157.917" stroke="#0F1424" stroke-width="5" stroke-linecap="round" stroke-linejoin="round"/>
</g>
<defs>
<clipPath id="clip0_1_830">
<rect width="250" height="250" fill="white" transform="translate(35 35)"/>
</clipPath>
</defs>
</svg>
